<svg xmlns="http://www.w3.org/2000/svg" viewBox="0 0 64 64" role="img" aria-labelledby="title">
  <title id="title">Scan2FEM</title>
  <style>
    .tile { fill: #edf5fc; }
    .scan { fill: none; stroke: #153b59; stroke-width: 4; stroke-linecap: round; stroke-linejoin: round; }
    .mesh { fill: none; stroke: #087da8; stroke-width: 2.6; stroke-linecap: round; stroke-linejoin: round; }
    .node { fill: #087da8; }
    @media (prefers-color-scheme: dark) {
      .tile { fill: #142331; }
      .scan { stroke: #e6f3ff; }
      .mesh { stroke: #5bd4ff; }
      .node { fill: #5bd4ff; }
    }
  </style>
  <rect class="tile" x="3" y="3" width="58" height="58" rx="15" />
  <path class="scan" d="M21 15h-4a2 2 0 0 0-2 2v8m0 14v8a2 2 0 0 0 2 2h8m22-34h-8m8 0a2 2 0 0 1 2 2v8m0 14v8a2 2 0 0 1-2 2h-8" />
  <path class="mesh" d="m22 39 10-18 12 9-5 14-17-5Zm10-18-1 14 13-5m-13 5 8 9m-17-5 9 5" />
  <circle class="node" cx="22" cy="39" r="2.8" />
  <circle class="node" cx="32" cy="21" r="2.8" />
  <circle class="node" cx="44" cy="30" r="2.8" />
  <circle class="node" cx="39" cy="44" r="2.8" />
  <circle class="node" cx="31" cy="35" r="2.8" />
</svg>
